<svg width="533" height="534" viewBox="0 0 533 534" fill="none" xmlns="http://www.w3.org/2000/svg">
<path d="M446.59 529.216C441.533 529.216 412.923 528.443 391.895 511.143C377.074 498.966 369.49 481.763 369.49 459.923V293.887H275.96L456.814 110.455V230.391H532.996V293.887H460.263V446.392C460.147 447.262 458.423 458.087 464.972 464.464C468.305 467.653 473.247 469.199 480.141 469.199H532.88V529.216H447.28C447.164 529.216 446.935 529.216 446.59 529.216ZM298.021 285.768H379.028V459.923C379.028 478.671 385.233 495.197 397.41 505.152C416.256 520.519 446.703 521.002 447.048 521.002H513.118V478.285H473.591C462.79 478.285 454.287 475.386 448.428 469.682C437.971 459.536 440.498 446.199 440.614 445.619L440.385 282.869H513.118V241.408H436.937V143.991L298.021 285.768Z" fill="url(#paint0_linear_725_2)"/>
<path d="M287.841 287.911L448.128 125.356V235.435H524.309V287.911H451.576V445.927C451.576 445.927 446.635 474.244 478.117 474.244C509.601 474.244 524.193 474.244 524.193 474.244V523.146H445.256C445.256 523.146 374.019 524.885 374.019 459.458C374.019 394.027 374.019 287.911 374.019 287.911H287.841Z" fill="url(#paint1_linear_725_2)"/>
<path d="M446.59 529.216C441.533 529.216 412.923 528.443 391.895 511.143C377.074 498.966 369.49 481.763 369.49 459.923V293.887H275.96L456.814 110.455V230.391H532.996V293.887H460.263V446.392C460.147 447.262 458.423 458.087 464.972 464.464C468.305 467.653 473.247 469.199 480.141 469.199H532.88V529.216H447.28C447.164 529.216 446.935 529.216 446.59 529.216ZM298.021 285.768H379.028V459.923C379.028 478.671 385.233 495.197 397.41 505.152C416.256 520.519 446.703 521.002 447.048 521.002H513.118V478.285H473.591C462.79 478.285 454.287 475.386 448.428 469.682C437.971 459.536 440.498 446.199 440.614 445.619L440.385 282.869H513.118V241.408H436.937V143.991L298.021 285.768Z" fill="url(#paint2_linear_725_2)"/>
<path d="M170.629 418.664C165.573 418.664 136.963 417.891 115.936 400.592C101.114 388.414 93.5302 371.211 93.5302 349.371V183.432H0L180.741 0V119.936H256.92V183.432H184.188V335.937C184.073 336.807 182.349 347.631 188.899 353.912C192.231 357.101 197.171 358.647 204.18 358.647H256.92V418.664H171.433C171.318 418.664 171.089 418.664 170.629 418.664ZM27.9211 172.317H106.629V349.371C106.629 368.119 112.834 382.713 125.013 392.668C143.857 408.035 170.859 407.551 171.204 407.551H237.732V369.665H198.205C187.405 369.665 178.902 366.766 173.042 361.065C162.586 350.917 165.114 335.647 165.229 335.067L165.114 172.317H237.387V130.857L160.288 130.76V38.078L27.9211 172.317Z" fill="url(#paint3_linear_725_2)"/>
<path d="M13.9014 177.927L174.189 15.3711V125.449H250.369V177.927H177.636V335.942C177.636 335.942 172.696 364.259 204.179 364.259C235.662 364.259 250.254 364.259 250.254 364.259V413.161H171.317C171.317 413.161 100.078 414.9 100.078 349.472C100.078 284.042 100.078 177.927 100.078 177.927H13.9014Z" fill="url(#paint4_linear_725_2)"/>
<path d="M170.629 418.664C165.574 418.664 136.963 417.891 115.936 400.592C101.114 388.414 93.5302 371.211 93.5302 349.371V183.432H0L180.741 0V119.936H256.92V183.432H184.188V335.937C184.073 336.807 182.349 347.631 188.899 353.912C192.231 357.101 197.171 358.647 204.18 358.647H256.92V418.664H171.433C171.318 418.664 171.089 418.664 170.629 418.664ZM24.4741 175.217H103.182V352.27C103.182 371.018 110.535 384.645 122.715 394.601C141.559 409.967 170.859 410.45 171.204 410.45H237.732V366.766H198.205C187.405 366.766 178.902 363.868 173.042 358.164C162.586 348.018 165.114 335.647 165.229 335.067L165.114 175.217H237.387V127.958L160.288 127.861V35.1786L24.4741 175.217Z" fill="url(#paint5_linear_725_2)"/>
<defs>
<linearGradient id="paint0_linear_725_2" x1="404.37" y1="125.826" x2="404.37" y2="523.667" gradientUnits="userSpaceOnUse">
<stop stop-color="#322EED"/>
<stop offset="1" stop-color="#E82BD5"/>
</linearGradient>
<linearGradient id="paint1_linear_725_2" x1="406.074" y1="125.356" x2="406.074" y2="523.151" gradientUnits="userSpaceOnUse">
<stop stop-color="#322EED"/>
<stop offset="1" stop-color="#E82BD5"/>
</linearGradient>
<linearGradient id="paint2_linear_725_2" x1="404.37" y1="125.826" x2="404.37" y2="523.667" gradientUnits="userSpaceOnUse">
<stop stop-color="#322EED"/>
<stop offset="1" stop-color="#E82BD5"/>
</linearGradient>
<linearGradient id="paint3_linear_725_2" x1="128.497" y1="15.3259" x2="128.497" y2="413.166" gradientUnits="userSpaceOnUse">
<stop stop-color="#322EED"/>
<stop offset="1" stop-color="#E82BD5"/>
</linearGradient>
<linearGradient id="paint4_linear_725_2" x1="132.135" y1="15.3711" x2="132.135" y2="413.166" gradientUnits="userSpaceOnUse">
<stop stop-color="#322EED"/>
<stop offset="1" stop-color="#E82BD5"/>
</linearGradient>
<linearGradient id="paint5_linear_725_2" x1="128.497" y1="15.3259" x2="128.497" y2="413.166" gradientUnits="userSpaceOnUse">
<stop stop-color="#322EED"/>
<stop offset="1" stop-color="#E82BD5"/>
</linearGradient>
</defs>
</svg>
